<svg width="25" height="15" viewBox="0 0 25 15" fill="none" xmlns="http://www.w3.org/2000/svg">
<path d="M10.9375 13.5938C10.9375 14.1094 11.6406 14.5312 12.5 14.5312C13.3594 14.5312 14.0625 14.1094 14.0625 13.5938H10.9375Z" fill="#616466"/>
<path d="M9.72656 11.25H15.2344C15.5469 10.2422 16.6016 9.25781 17.6953 8.22656C18.9844 7.03125 20.3125 5.78906 20.3125 4.59375C20.3125 2.32031 16.7969 0.46875 12.5 0.46875C8.20312 0.46875 4.6875 2.32031 4.6875 4.59375C4.6875 5.78906 6.01563 7.03125 7.26563 8.22656C8.35938 9.25781 9.41406 10.2422 9.72656 11.25Z" fill="#FFCE31"/>
<path d="M10.3125 7.875C10.3516 8.01562 10.4297 8.15625 10.4688 8.29687C10.586 8.55469 10.6641 8.78906 10.7813 9.04687C11.1329 9.9375 11.4454 10.6875 11.7188 11.2734H11.9532C11.7579 10.6875 11.4844 9.91406 11.1329 9.02344C11.0547 8.78906 10.9375 8.53125 10.8594 8.27344C10.8203 8.15625 10.7813 8.01562 10.7032 7.89844C11.0157 7.85156 11.7578 7.71094 12.5 7.21875C13.2422 7.71094 13.9844 7.85156 14.2969 7.89844C14.2578 8.03906 14.2188 8.15625 14.1407 8.27344C14.0625 8.53125 13.9453 8.78906 13.8672 9.02344C13.5157 9.91406 13.2422 10.6875 13.0469 11.2734H13.2813C13.5157 10.6875 13.8672 9.9375 14.2188 9.04687C14.2969 8.8125 14.4141 8.55469 14.5313 8.29687C14.5703 8.15625 14.6485 8.01562 14.6875 7.875C15 7.85156 15.2735 7.80469 15.4688 7.6875C15.7032 7.54687 15.8203 7.38281 15.7422 7.19531C15.7032 7.10156 15.625 6.98437 15.3907 6.96094C15.2735 6.9375 15.1953 6.9375 15.0782 6.96094C14.961 6.98437 14.8828 7.03125 14.8438 7.05469C14.6485 7.19531 14.5703 7.33594 14.4922 7.47656L14.375 7.6875C14.375 7.6875 14.0625 7.71094 13.3203 7.40625C12.9297 7.24219 12.8125 7.125 12.6953 7.05469C12.8125 6.96094 12.9297 6.89062 13.0469 6.77344C13.086 6.70312 13.125 6.65625 13.1641 6.5625C13.1641 6.49219 13.1641 6.39844 13.086 6.32812C13.0078 6.25781 12.9297 6.1875 12.7344 6.14063C12.6563 6.11719 12.5782 6.11719 12.5 6.11719C12.4219 6.11719 12.3438 6.11719 12.2657 6.14063C12.1094 6.1875 11.9922 6.25781 11.9141 6.32812C11.836 6.39844 11.836 6.49219 11.836 6.5625C11.836 6.63281 11.875 6.70312 11.9532 6.77344C12.0313 6.89062 12.1485 6.98437 12.3047 7.05469C12.1875 7.125 12.0703 7.24219 11.6797 7.40625C10.9766 7.6875 10.625 7.6875 10.625 7.6875L10.5079 7.47656C10.4297 7.33594 10.3516 7.19531 10.1563 7.05469C10.1172 7.03125 10.0391 6.98437 9.92191 6.96094C9.80473 6.9375 9.68754 6.9375 9.60941 6.96094C9.37504 7.00781 9.29691 7.125 9.25785 7.19531C9.21879 7.38281 9.33598 7.54687 9.53129 7.6875C9.76566 7.80469 10.0391 7.85156 10.3125 7.875ZM14.8438 7.52344C14.9219 7.40625 15 7.26562 15.1563 7.19531C15.1953 7.17187 15.2344 7.17187 15.2344 7.17187H15.3125C15.3516 7.17187 15.3907 7.19531 15.4297 7.26562C15.4688 7.35937 15.3907 7.5 15.2344 7.57031C15.1172 7.61719 14.961 7.66406 14.8047 7.6875C14.8047 7.61719 14.8047 7.57031 14.8438 7.52344ZM12.2657 6.39844C12.3438 6.35156 12.4219 6.30469 12.5 6.30469C12.5782 6.30469 12.6563 6.32812 12.7344 6.39844C12.8125 6.46875 12.7735 6.5625 12.6953 6.65625C12.6563 6.72656 12.5782 6.79687 12.5 6.84375C12.4219 6.77344 12.3438 6.72656 12.3047 6.65625C12.2266 6.58594 12.1875 6.49219 12.2657 6.39844ZM9.60941 7.21875C9.60941 7.17187 9.64848 7.14844 9.7266 7.125H9.80473C9.80473 7.125 9.84379 7.14844 9.88285 7.14844C10 7.21875 10.1172 7.35937 10.1954 7.47656C10.2344 7.52344 10.2344 7.57031 10.2735 7.61719C10.1172 7.59375 9.96098 7.57031 9.84379 7.5C9.68754 7.45312 9.60941 7.33594 9.60941 7.21875Z" fill="#C79127"/>
<path d="M9.72656 11.7188H15.3125V12.1406H9.72656V11.7188Z" fill="#94989B"/>
<path d="M10.1172 12.5625H14.9219V12.9844H10.1172V12.5625Z" fill="#94989B"/>
<path d="M10.1172 12.1406H14.9219V12.5625H10.1172V12.1406Z" fill="#616466"/>
<path d="M15.3125 11.7188L10.1172 12.5625V13.0078L15.3125 12.1406V11.7188Z" fill="#94989B"/>
<path d="M10.5078 13.4297H14.5313V13.8516H10.5078V13.4297Z" fill="#94989B"/>
<path d="M10.5078 13.0078H14.5313V13.4297H10.5078V13.0078Z" fill="#616466"/>
<path d="M14.9219 12.5625L10.5078 13.4297V13.875L14.9219 13.0078V12.5625Z" fill="#94989B"/>
</svg>
